<svg xmlns="http://www.w3.org/2000/svg" viewBox="0 0 20 14" width="20" height="14">
  <rect width="20" height="14" fill="#ffffff" rx="1"/>
  <rect width="19.4" height="13.4" x="0.3" y="0.3" fill="none" stroke="#e4e4e7" stroke-width="0.6" rx="0.7"/>
  <path d="M 10 3.5 A 3.5 3.5 0 0 1 10 10.5 A 1.75 1.75 0 0 1 10 7 A 1.75 1.75 0 0 0 10 3.5 Z" fill="#cd2e3a"/>
  <path d="M 10 10.5 A 3.5 3.5 0 0 1 10 3.5 A 1.75 1.75 0 0 1 10 7 A 1.75 1.75 0 0 0 10 10.5 Z" fill="#0047a0"/>
  <g stroke="#111827" stroke-width="0.7" stroke-linecap="round">
    <line x1="4.2" y1="3.2" x2="6.2" y2="4.7"/>
    <line x1="4.7" y1="2.6" x2="6.7" y2="4.1"/>
    <line x1="3.7" y1="3.8" x2="5.7" y2="5.3"/>
    <line x1="13.8" y1="9.3" x2="14.7" y2="10"/><line x1="15.1" y1="10.3" x2="16" y2="11"/>
    <line x1="14.3" y1="8.7" x2="15.2" y2="9.4"/><line x1="15.6" y1="9.7" x2="16.5" y2="10.4"/>
    <line x1="13.3" y1="9.9" x2="14.2" y2="10.6"/><line x1="14.6" y1="10.9" x2="15.5" y2="11.6"/>
    <line x1="13.8" y1="4.7" x2="14.7" y2="4"/><line x1="15.1" y1="3.7" x2="16" y2="3"/>
    <line x1="14.3" y1="5.3" x2="16.5" y2="3.6"/>
    <line x1="13.3" y1="4.1" x2="14.2" y2="3.4"/><line x1="14.6" y1="3.1" x2="15.5" y2="2.4"/>
    <line x1="4.2" y1="9.3" x2="6.2" y2="10.8"/>
    <line x1="4.7" y1="8.7" x2="5.6" y2="9.4"/><line x1="6" y1="9.7" x2="6.9" y2="10.4"/>
    <line x1="3.7" y1="9.9" x2="5.7" y2="11.4"/>
  </g>
</svg>
